/* XPM */
static const char *about_xpm[] = {
/* columns rows colors chars-per-pixel */
"32 32 119 2",
"   c None",
".  c #00060A",
"X  c #010A12",
"o  c #03111D",
"O  c #041B2F",
"+  c #041C32",
"@  c #072037",
"#  c #062847",
"$  c #072948",
"%  c #082C4D",
"&  c #072E53",
"*  c #0B3458",
"=  c #0E4C86",
"-  c #0E4E89",
";  c #115FA4",
":  c #105FA9",
">  c #1562A6",
",  c #1865A6",
"<  c #1464AC",
"1  c #1866A9",
"2  c #1668AF",
"3  c #1B6AAE",
"4  c #1B6CB2",
"5  c #1E71B6",
"6  c #206FB0",
"7  c #2273B5",
"8  c #2778B7",
"9  c #2878B6",
"0  c #2276B9",
"q  c #267ABC",
"w  c #2B7DBD",
"e  c #2B80BF",
"r  c #3282BF",
"t  c #3883BF",
"y  c #2D82C1",
"u  c #3286C4",
"i  c #3489C6",
"p  c #3A89C3",
"a  c #378CC8",
"s  c #398EC9",
"d  c #3C92CC",
"f  c #438DC5",
"g  c #4D8FC5",
"h  c #4B90C5",
"j  c #4295CE",
"k  c #4898CF",
"l  c #5E9ECD",
"z  c #4397D0",
"x  c #469AD1",
"c  c #4A9DD3",
"v  c #609DCB",
"b  c #4DA1D5",
"n  c #52A3D7",
"m  c #53A5D8",
"M  c #59A6D8",
"N  c #57A8DA",
"B  c #5CACDC",
"V  c #64A1CE",
"C  c #6CA3CF",
"Z  c #63A8D6",
"A  c #64ACDB",
"S  c #68AEDD",
"D  c #62B0DF",
"F  c #6CB1DE",
"G  c #7AB0D7",
"H  c #76B7DE",
"J  c #65B3E1",
"K  c #6AB6E2",
"L  c #6DB9E4",
"P  c #72B5E0",
"I  c #73BDE6",
"U  c #7ABCE3",
"Y  c #7BC0E7",
"T  c #7CC2E9",
"R  c #82B2D7",
"E  c #87BEDF",
"W  c #88BBDE",
"Q  c #94BEDE",
"!  c #82BDE1",
"~  c #8EC0E0",
"^  c #82C6EB",
"/  c #8AC5E9",
"(  c #86C9ED",
")  c #8ACBEE",
"_  c #97C5E2",
"`  c #97C8E6",
"'  c #95CDEC",
"]  c #97D0EF",
"[  c #8ECEF0",
"{  c #94D1F1",
"}  c #9BD5F4",
"|  c #A4CBE5",
" . c #A3CEE8",
".. c #A4D1EC",
"X. c #B4D3E7",
"o. c #B2D3E9",
"O. c #BCD6E9",
"+. c #A0D6F2",
"@. c #A0D8F5",
"#. c #ACDCF4",
"$. c #B7DCF1",
"%. c #B6E1F6",
"&. c #BDE3F6",
"*. c #C6DDED",
"=. c #CEE2EF",
"-. c #CFE3F1",
";. c #CBEAF9",
":. c #D3E4F1",
">. c #DDE9F2",
",. c #D3EFFA",
"<. c #D9F1FA",
"1. c #E5EEF5",
"2. c #E2EFF8",
"3. c #E2F3FB",
"4. c #EBF4F9",
"5. c #EEF9FD",
"6. c #F1F7FB",
"7. c #F5FAFD",
"8. c #F8FDFF",
/* pixels */
"                        3.,.&.] T F F Z                         ",
"                    <.5.5.,.&.#.} ] / H Z Z A                   ",
"                { &.;.%.} } } @.} } } } } / F B                 ",
"            P U } } } } } } } } } } } } } } } / S A             ",
"          S H ' [ { { { { { { { } [ ] ] ] { { { ' K S           ",
"        A F [ [ [ [ [ [ [ [ [ [ [ [ ) ) [ [ [ [ [ ) H S         ",
"        S ( ^ ( [ ) ( ) [ ) [ ) )  .>.1.o.) ) ) ^ ^ ( F S       ",
"      A ^ ^ T ^ T ( T ( ( T T T / 5.8.8.7.^ T ^ ^ ^ ^ T S       ",
"    S P T T T T T T T T Y Y Y T ` 8.8.8.7.^ T T T U T I I S     ",
"    S I I I I I I I I T Y Y Y Y Y 3.8.8.$.T I I I I I I I J     ",
"    K K L L L L L I I L L Y I I I I ' / L I L I I L L L K K     ",
"  Z K J J J K J J L J L L L F H _ | ! K K K K K K K K J D K D   ",
"  S B B D D J J J J J J J F X.6.8.8.8.E J J J J D D D D D D A   ",
"  B B B B B B B B B B D F =...4.8.8.8.` D B B B B B B B N N B   ",
"  M n m m m N N B N N S -.I B 4.8.8.8.H B N N N m N m N m m M   ",
"  n c b c n n n m m m ` E m ~ 8.8.8.3.m m m m n n n n b b c n   ",
"  c x x x b b b c b b b b b =.8.8.8.| b b b b b b b b x x b b   ",
"  x z z z z z x x x x x c Z 8.8.8.8.Z c x b x x x d b d d d x   ",
"  k d d d d d d j z z z j | 8.8.8.-.j j x d d d d d d d d s j   ",
"  f a a a a s d d s d d f 4.8.8.8.W d d d d d s d s s s s s s   ",
"    u u u u i a i a a a G 8.8.8.5.j a l a a a a a a u u u u p   ",
"    r y y y y y y u u u O.8.8.8.X.u V *.u u u y y y y y y r     ",
"    w w q y y q y y y u 4.8.8.8.R v :.h y y y y y w w w w w     ",
"      9 0 0 q q q q q h 8.8.8.8.4.-.f w q q q q q q 8 8 9       ",
"      9 7 7 7 0 8 q 0 u 7.8.8.6.Q w q q 0 0 0 0 5 0 7 7 7       ",
"        6 3 6 4 4 4 4 5 g R C w 5 5 4 4 5 7 4 4 5 4 4 6         ",
"          3 4 4 4 3 4 4 4 4 4 4 4 4 4 4 4 4 4 3 4 3 3           ",
"            1 < 2 < 2 1 3 2 2 2 2 2 2 2 2 2 2 2 < ,             ",
"              , ; ; < < < < < < < < < < < < ; * @               ",
"                  O # = : : : : : : : : - % .                   ",
"                        X + # & & % + X                         ",
"                            . . .                               "
};
