/* XPM */
static const char *arrow_left_16x16_xpm[] = {
/* columns rows colors chars-per-pixel */
"16 16 101 2",
"   c #266990",
".  c #2B6E94",
"X  c #2677A5",
"o  c #2874A0",
"O  c #2977A3",
"+  c #2F7BA7",
"@  c #2A7AA8",
"#  c #3E7FA3",
"$  c #3482AD",
"%  c #3682AC",
"&  c #2382B7",
"*  c #2482B7",
"=  c #2685BA",
"-  c #2486BD",
";  c #2588BF",
":  c #2988BE",
">  c #2B89BE",
",  c #3D88B2",
"<  c #3D8AB3",
"1  c #3989B5",
"2  c #3C8AB5",
"3  c #578CA9",
"4  c #5A8FAD",
"5  c #4593BD",
"6  c #4394BE",
"7  c #4891BA",
"8  c #4B95BD",
"9  c #4D95BD",
"0  c #6094B0",
"q  c #2588C0",
"w  c #2F8DC2",
"e  c #298CC4",
"r  c #328FC4",
"t  c #2E90C6",
"y  c #3992C5",
"u  c #3092CA",
"i  c #3597CD",
"p  c #3995C9",
"a  c #3B96CA",
"s  c #3E96C9",
"d  c #3698CF",
"f  c #369AD1",
"g  c #3A9FD6",
"h  c #3C9FD5",
"j  c #3E9FD4",
"k  c #3EA4DB",
"l  c #419BCE",
"z  c #429CCF",
"x  c #479DCE",
"c  c #549AC0",
"v  c #419FD4",
"b  c #4AA2D3",
"n  c #4FA4D3",
"m  c #41A4DA",
"M  c #43A8DE",
"N  c #49A9DD",
"B  c #4FABDE",
"V  c #51A9DA",
"C  c #57AAD8",
"Z  c #54ACDD",
"A  c #57ADDD",
"S  c #54ACDE",
"D  c #62A3C6",
"F  c #60A4C8",
"G  c #61A4C8",
"H  c #61B2DE",
"J  c #40A8E0",
"K  c #45ACE3",
"L  c #4BAEE3",
"P  c #4EAEE2",
"I  c #55AEE0",
"U  c #55B0E2",
"Y  c #52B3E7",
"T  c #54B1E4",
"R  c #5AB0E0",
"E  c #5CB3E2",
"W  c #5AB5E6",
"Q  c #5CB4E5",
"!  c #57B5E8",
"~  c #5BB8EA",
"^  c #5FB8E9",
"/  c #5EBBEC",
"(  c #60B4E1",
")  c #61B4E1",
"_  c #65B5E1",
"`  c #62B7E5",
"'  c #61B8E7",
"]  c #64B8E5",
"[  c #68B9E4",
"{  c #68B9E5",
"}  c #6DBCE7",
"|  c #62BBEB",
" . c #64BAE8",
".. c #65BBE9",
"X. c #67BDEA",
"o. c #64BDEC",
"O. c #69BBE8",
"+. c #6ABCE8",
"@. c #68BDEA",
"#. c #6DBEE9",
"$. c None",
/* pixels */
"$.$.$.$.$.$.$.$.$.$.$.$.$.$.$.$.",
"$.$.$.$.$.$.$.X * $.$.$.$.$.$.$.",
"$.$.$.$.$.$.@ ; - * $.$.$.$.$.$.",
"$.$.$.$.$.$ u e ; -   $.$.$.$.$.",
"$.$.$.$.1 f d i r . $.$.$.$.$.$.",
"$.$.$.2 g h h v # $.$.$.$.$.$.$.",
"$.$.< k m N B S 9 7 < % + o o $.",
"$.6 J M P T U I S V v a r : = $.",
"$.5 K L ! W Q E R S b z p r : $.",
"$.$.8 Y ~ ^  .] [ _ C n x s y $.",
"$.$.$.c / | X. .0 $.$.$.$.$.$.$.",
"$.$.$.$.F o.+.#.} 4 $.$.$.$.$.$.",
"$.$.$.$.$.D X.+.[ ) 3 $.$.$.$.$.",
"$.$.$.$.$.$.D  .` H $.$.$.$.$.$.",
"$.$.$.$.$.$.$.G ) $.$.$.$.$.$.$.",
"$.$.$.$.$.$.$.$.$.$.$.$.$.$.$.$."
};
