/* XPM */
static const char *arrow_right_16x16_xpm[] = {
/* columns rows colors chars-per-pixel */
"16 16 102 2",
"   c #29698E",
".  c #32749A",
"X  c #2774A0",
"o  c #2675A2",
"O  c #2978A4",
"+  c #2A78A4",
"@  c #317EA9",
"#  c #3F81A7",
"$  c #3080AD",
"%  c #3382AD",
"&  c #3782AD",
"*  c #2382B8",
"=  c #2482B8",
"-  c #2584BA",
";  c #2486BD",
":  c #2B89BE",
">  c #2A89BF",
",  c #3885B0",
"<  c #3C87B1",
"1  c #3E8DB8",
"2  c #558AA8",
"3  c #418FB9",
"4  c #438FB8",
"5  c #468FB8",
"6  c #4C95BD",
"7  c #4C97BE",
"8  c #5197BD",
"9  c #6095B2",
"0  c #6197B5",
"q  c #2688C0",
"w  c #288BC3",
"e  c #2B8BC2",
"r  c #2A8CC3",
"t  c #2F8DC2",
"y  c #2A8EC6",
"u  c #328FC4",
"i  c #2F93CA",
"p  c #2F94CC",
"a  c #3892C5",
"s  c #3495CB",
"d  c #3597CD",
"f  c #3894C8",
"g  c #3A95C9",
"h  c #3D96C8",
"j  c #379BD1",
"k  c #359BD2",
"l  c #3CA2DA",
"z  c #3FA7DF",
"x  c #429BCE",
"c  c #469CCD",
"v  c #589CC0",
"b  c #5EA0C3",
"n  c #5FA2C5",
"m  c #47A0D2",
"M  c #41A0D4",
"N  c #42A2D7",
"B  c #41A4DA",
"V  c #44A9DF",
"C  c #49A8DD",
"Z  c #48A9DE",
"A  c #4FABDF",
"S  c #51A5D4",
"D  c #51A8D8",
"F  c #50A8D9",
"G  c #53ABDC",
"H  c #53ACDD",
"J  c #56ACDC",
"K  c #54AEDF",
"L  c #59AFDF",
"P  c #5EB0DD",
"I  c #61A3C6",
"U  c #60B1DE",
"Y  c #45ACE3",
"T  c #49ADE2",
"R  c #4DADE1",
"E  c #51AEE1",
"W  c #4EB0E5",
"Q  c #52B0E3",
"!  c #55B0E1",
"~  c #57B3E4",
"^  c #56B3E6",
"/  c #5AB2E2",
"(  c #5BB3E4",
")  c #5BB5E6",
"_  c #5CB5E6",
"`  c #5DB7E7",
"'  c #63B4E0",
"]  c #62B5E1",
"[  c #60B5E2",
"{  c #61B6E3",
"}  c #66B7E3",
"|  c #62B6E4",
" . c #60B7E6",
".. c #62B8E6",
"X. c #63B9E7",
"o. c #66B9E6",
"O. c #67B9E6",
"+. c #69B9E5",
"@. c #6CBBE6",
"#. c #64BAE8",
"$. c #6ABCE8",
"%. c None",
/* pixels */
"%.%.%.%.%.%.%.%.%.%.%.%.%.%.%.%.",
"%.%.%.%.%.%.%.* X %.%.%.%.%.%.%.",
"%.%.%.%.%.%.= ; q + %.%.%.%.%.%.",
"%.%.%.%.%.  e r w y $ %.%.%.%.%.",
"%.%.%.%.%.%.. s d i s $ %.%.%.%.",
"%.%.%.%.%.%.%.# M N k k , %.%.%.",
"%.X + @ & < 5 6 G A C B l 1 %.%.",
"%.- > u g m F G K ! K V Y z 3 %.",
"%.: u g x D K L / ( ^ R T Y 4 %.",
"%.a h c S U U }  . .) Q W 6 %.%.",
"%.%.%.%.%.%.%.9 O.#.) ^ 8 %.%.%.",
"%.%.%.%.%.%.0 @.@.X.` v %.%.%.%.",
"%.%.%.%.%.2 [ @.O.X.I %.%.%.%.%.",
"%.%.%.%.%.%.U [ X.I %.%.%.%.%.%.",
"%.%.%.%.%.%.%.[ b %.%.%.%.%.%.%.",
"%.%.%.%.%.%.%.%.%.%.%.%.%.%.%.%."
};
