/* XPM */
static const char *chart_bar_16x16_xpm[] = {
/* columns rows colors chars-per-pixel */
"16 16 165 2",
"   c #5F6D6F",
".  c #6D6661",
"X  c #6F6762",
"o  c #6A6966",
"O  c #616E6F",
"+  c #656D6D",
"@  c #746965",
"#  c #676776",
"$  c #616D70",
"%  c #646C73",
"&  c #696379",
"*  c #6B6578",
"=  c #6F6879",
"-  c #C72B16",
";  c #C72C16",
":  c #C82D16",
">  c #C92D16",
",  c #C92D17",
"<  c #CA2D17",
"1  c #CE2C16",
"2  c #CB2E18",
"3  c #CE311A",
"4  c #CC331F",
"5  c #CB2A26",
"6  c #C12A28",
"7  c #C12A29",
"8  c #C12A2A",
"9  c #C22A2A",
"0  c #C32C29",
"q  c #C73826",
"w  c #C4372B",
"e  c #C8302C",
"r  c #C8332D",
"t  c #C1382A",
"y  c #C0392A",
"u  c #C0382B",
"i  c #C13A2B",
"p  c #C13B2B",
"a  c #C33E2E",
"s  c #C43D2D",
"d  c #E54025",
"f  c #E8482C",
"g  c #EA4E33",
"h  c #ED5239",
"j  c #EF573D",
"k  c #F15B43",
"l  c #F35F49",
"z  c #F6644D",
"x  c #F86853",
"c  c #FA6C58",
"v  c #FF715C",
"b  c #FF7761",
"n  c #399200",
"m  c #458700",
"M  c #418A00",
"N  c #448800",
"B  c #458800",
"V  c #468800",
"C  c #478A00",
"Z  c #458D00",
"A  c #4C8D00",
"S  c #96BB00",
"D  c #98BA00",
"F  c #97C200",
"G  c #99C000",
"H  c #9AC600",
"J  c #97CE00",
"K  c #98C800",
"L  c #99CD00",
"P  c #98D500",
"I  c #9AD400",
"U  c #9DE400",
"Y  c #9CE500",
"T  c #B2EE18",
"R  c #A8F314",
"E  c #A9EA28",
"W  c #B6E32D",
"Q  c #ADE737",
"!  c #BAE03D",
"~  c #FF8A77",
"^  c #FF8979",
"/  c #FF8A78",
"(  c #FF8B78",
")  c #FF897B",
"_  c #FD8B7A",
"`  c #FF8A7A",
"'  c #FE8B7A",
"]  c #FF8A7B",
"[  c #FB8D7A",
"{  c #FA8F7B",
"}  c #FC8B7C",
"|  c #FD8B7C",
" . c #FA8D7D",
".. c #F98F7E",
"X. c #F9907E",
"o. c #F8917F",
"O. c #F6AF6C",
"+. c #B3E544",
"@. c #B7E34F",
"#. c #BDE25B",
"$. c #C0DE4A",
"%. c #C5DC55",
"&. c #D6E44F",
"*. c #D4E64F",
"=. c #CADB61",
"-. c #D6DD71",
";. c #C8E46B",
":. c #0F85BF",
">. c #1681B6",
",. c #1582B7",
"<. c #1782B6",
"1. c #1782B7",
"2. c #1882B6",
"3. c #1882B7",
"4. c #1483BA",
"5. c #1983B8",
"6. c #1D85BA",
"7. c #068AC6",
"8. c #1490DB",
"9. c #1291DE",
"0. c #2598DD",
"q. c #2399E0",
"w. c #2F9EE2",
"e. c #329DE0",
"r. c #3CA4E2",
"t. c #3AA6E4",
"y. c #45AAE6",
"u. c #48A8E4",
"i. c #52AFE6",
"p. c #50B0E8",
"a. c #5AB6EB",
"s. c #5DB5E8",
"d. c #67BCEF",
"f. c #69BBED",
"g. c #7BC2EE",
"h. c #7CC3EF",
"j. c #6AC9FB",
"k. c #69C9FC",
"l. c #6ACAFC",
"z. c #6BCAFD",
"x. c #6BC9FE",
"c. c #6ECBFD",
"v. c #7DC2F1",
"b. c #7DC4F0",
"n. c #76C8FA",
"m. c #74C9FC",
"M. c #70CDFE",
"N. c #74CFFF",
"B. c #79D1FF",
"V. c #F79382",
"C. c #F79583",
"Z. c #F59584",
"A. c #F49685",
"S. c #F89182",
"D. c #F89482",
"F. c #F69889",
"G. c #85D2EB",
"H. c #88D0E9",
"J. c #80C5F0",
"K. c #83C7F1",
"L. c #87C8F2",
"P. c #8ACBF5",
"I. c #8FD5FF",
"U. c #81D9FF",
"Y. c None",
/* pixels */
"Y.Y.Y.Y.Y.a t t i i a Y.Y.Y.Y.Y.",
"Y.Y.Y.Y.Y.p F.O.O.F.q Y.Y.Y.Y.Y.",
"Y.Y.Y.Y.Y.t A.d d C.q Y.Y.Y.Y.Y.",
"Y.Y.Y.Y.Y.t A.f f D.1 7.4.2.6.6.",
"Y.Y.Y.Y.Y.w S.g g S.2 l.G.H.v.5.",
"Y.Y.Y.Y.Y.r S.h h .., l.9.8.h.2.",
"A C C n n r  .j j { ; l.0.0.h.2.",
"C -.&.*.;.0  .k k { 2 l.w.e.h.>.",
"C =.S S #.6 } z l ^ : c.t.r.h.2.",
"N %.D F @.6 } z z ^ : c.y.y.J.2.",
"C $.H K +.9 ^ x x ^ ; c.i.i.K.>.",
"m ! J J Q 7 ] c c ^ ; N.a.s.L.>.",
"m W I P E 9 ^ v v ^ ; B.d.f.P.>.",
"Z T U Y R 5 ^ b b ~ 1 U.m.m.I.:.",
"= * & & # % $     O + o . X X @ ",
"Y.Y.Y.Y.Y.Y.Y.Y.Y.Y.Y.Y.Y.Y.Y.Y."
};
