/* XPM */
static const char *delete_16x16_xpm[] = {
/* columns rows colors chars-per-pixel */
"16 16 84 1 ",
"  c #BF3332",
". c #D31615",
"X c #D91716",
"o c #DF1817",
"O c #D61D1A",
"+ c #D81E1B",
"@ c #D3221F",
"# c #E1201D",
"$ c #C42726",
"% c #C62A27",
"& c #CF2825",
"* c #CE2B27",
"= c #C62B28",
"- c #C52C28",
"; c #C22E2C",
": c #CA2E28",
"> c #CB2F2B",
", c #D52320",
"< c #D12825",
"1 c #C1302E",
"2 c #D0302D",
"3 c #C73531",
"4 c #C93532",
"5 c #C13A37",
"6 c #C73D36",
"7 c #C63D3A",
"8 c #D13933",
"9 c #D33934",
"0 c #E22724",
"q c #E32E2A",
"w c #E43631",
"e c #E53D37",
"r c #D8403A",
"t c #D8413A",
"y c #E6453E",
"u c #C34241",
"i c #C54240",
"p c #C44540",
"a c #C44B49",
"s c #DD4941",
"d c #DD4A42",
"f c #D94C43",
"g c #C5504B",
"h c #C75E5B",
"j c #E74C44",
"k c #E1534A",
"l c #E8534A",
"z c #E7594F",
"x c #CC6C69",
"c c #CE7776",
"v c #D17F7E",
"b c #D0817E",
"n c #D38887",
"m c #D48989",
"M c #D58E8D",
"N c #D68E8D",
"B c #D79593",
"V c #D89797",
"C c #D99999",
"Z c #D99A99",
"A c #DA9B9B",
"S c #DBA0A0",
"D c #DDA6A5",
"F c #DDA7A6",
"G c #DDA8A6",
"H c #DFABAA",
"J c #E2B6B6",
"K c #E5BEBC",
"L c #EDD3D2",
"P c #EED4D4",
"I c #F1DCDC",
"U c #F1DDDD",
"Y c #F2E0E0",
"T c #F3E1E1",
"R c #F5E6E6",
"E c #F6E9E9",
"W c #F6EAEA",
"Q c #F8EEEE",
"! c #F9F1F1",
"~ c #F9F2F2",
"^ c #FBF5F5",
"/ c #FCF7F7",
"( c #FFFEFE",
") c None",
/* pixels */
"))))))))))))))))",
"))))))))))))))))",
")))Fb))))))/hM))",
"))Gfkn))))~gza))",
"))ndldA))WpliQ))",
")))Brj9HT7j6R)))",
"))))F9y93y4I))))",
")))))J2ee>L)))))",
")))))K*ww>P)))))",
"))))H<q<%q%Y))))",
")))V@0@SI$0-W)))",
"))mO#OM))R;#;~))",
"))A.Xc))))Q o5))",
")))Ax))))))^uv))",
"))))))))))))))))",
"))))))))))))))))"
};
