/* XPM */
static const char *find_16x16_xpm[] = {
/* columns rows colors chars-per-pixel */
"16 16 133 2",
"   c #0D0E0F",
".  c #141517",
"X  c #13171A",
"o  c #191D20",
"O  c #1C2024",
"+  c #1C2227",
"@  c #1C2228",
"#  c #242627",
"$  c #262B2F",
"%  c #292B2C",
"&  c #292B2D",
"*  c #2C2E30",
"=  c #2F3133",
"-  c #2B3034",
";  c #353738",
":  c #3C3D3E",
">  c #353C43",
",  c #363D44",
"<  c #3D3F40",
"1  c #3C4044",
"2  c #40474D",
"3  c #41474E",
"4  c #41484E",
"5  c #41484F",
"6  c #464B4F",
"7  c #464C52",
"8  c #4B535B",
"9  c #4E575F",
"0  c #525559",
"q  c #555A5E",
"w  c #515A62",
"e  c #5C6165",
"r  c #5E6369",
"t  c #6D6E6F",
"y  c #6D6F70",
"u  c #78818A",
"i  c #79838B",
"p  c #778491",
"a  c #7E8A97",
"s  c #7F8B98",
"d  c #5D9DB4",
"f  c #5FA0B8",
"g  c #5FA2BB",
"h  c #71A5BA",
"j  c #75A5B8",
"k  c #70A8BD",
"l  c #49B0CD",
"z  c #57B6D2",
"x  c #69B2CB",
"c  c #6BB5CE",
"v  c #65B9D3",
"b  c #63BCD6",
"n  c #68BCD5",
"m  c #69C5DC",
"M  c #6FC8DE",
"N  c #75C4DA",
"B  c #77CCE0",
"V  c #7ACDE1",
"C  c #7DCEE1",
"Z  c #7FCFE2",
"A  c #87929D",
"S  c #88939E",
"D  c #9BA0A5",
"F  c #90A3AE",
"G  c #8CADBC",
"H  c #8EAEBD",
"J  c #90A5B2",
"K  c #99ABB6",
"L  c #90AEBC",
"P  c #91AEBC",
"I  c #9AADB8",
"U  c #A2A9AE",
"Y  c #A9B2BB",
"T  c #AAB4BD",
"R  c #ABB4BD",
"E  c #B7BBBF",
"W  c #86B2C4",
"Q  c #85B4C6",
"!  c #93B6C5",
"~  c #A1BCC9",
"^  c #A2BDC9",
"/  c #B5BEC6",
"(  c #B7BFC6",
")  c #B7BFC7",
"_  c #B9BEC2",
"`  c #88C0D5",
"'  c #8CC4D8",
"]  c #8DCBDD",
"[  c #8FCDDE",
"{  c #BCC3C9",
"}  c #BBC4CB",
"|  c #AEC8D3",
" . c #B0C9D4",
".. c #BDD2DC",
"X. c #BED3DC",
"o. c #83CFE2",
"O. c #8ECEE0",
"+. c #80D0E2",
"@. c #81D0E3",
"#. c #84D0E3",
"$. c #85D1E3",
"%. c #88D3E4",
"&. c #8BD4E5",
"*. c #8ED5E5",
"=. c #92D1E2",
"-. c #93D7E7",
";. c #94D7E7",
":. c #99D7E6",
">. c #9AD7E6",
",. c #9BDAE9",
"<. c #9FDBE9",
"1. c #ADD8E6",
"2. c #A1DCEA",
"3. c #A9DEEB",
"4. c #ABDFEB",
"5. c #B0DAE7",
"6. c #BEDCE6",
"7. c #B5E4EE",
"8. c #B6E4EE",
"9. c #BBE1EC",
"0. c #BCE2EC",
"q. c #BFE5EF",
"w. c #C0CBD3",
"e. c #C3CDD4",
"r. c #D3D8DD",
"t. c #C1DEE8",
"y. c #C3E4EE",
"u. c #C5E5EE",
"i. c #DDE0E4",
"p. c #DEE2E5",
"a. c #C0E7F0",
"s. c #EAF5F9",
"d. c None",
/* pixels */
"d.d.d.d.d.d.d.d.< y t : d.d.d.d.",
"d.d.d.d.d.d.= _ w.~ ~ e.E & d.d.",
"d.d.d.d.d.* } ! t.s.s.6.! { # d.",
"d.d.d.d.d.U Q 0.q.a.a.q.9.Q D d.",
"d.d.d.d.; G [ :.<.2.2.<.:.] P % ",
"d.d.d.d.e k N $.&.*.%.C m l d 0 ",
"d.d.d.d.r g b B C @.@.V M z f q ",
"d.d.d.d.6 h n $.-.<.,.;.o.v j < ",
"d.d.d.d.. J c =.4.7.7.4.O.c F   ",
"d.d.d.d.- S G ' 1.u.y.1.Q ! 7 d.",
"d.d.d.7 / r.S I  .X.X.| I 8 d.d.",
"d.d.5 / p.R $ O w i i 9 o d.d.d.",
"d., Y p.) 3 d.d.d.d.d.d.d.d.d.d.",
"@ a / T 3 d.d.d.d.d.d.d.d.d.d.d.",
"X p A > d.d.d.d.d.d.d.d.d.d.d.d.",
"d.X O d.d.d.d.d.d.d.d.d.d.d.d.d."
};
