/* XPM */
static const char *new_32x32_xpm[] = {
/* columns rows colors chars-per-pixel */
"32 32 156 2",
"   c #000000",
".  c #080808",
"X  c #0A0A0A",
"o  c #101214",
"O  c #1B1B1B",
"+  c #1B1B1C",
"@  c #191C1F",
"#  c #1F1F1F",
"$  c #202224",
"%  c #232629",
"&  c #262728",
"*  c #272828",
"=  c #28292A",
"-  c #2A2A2B",
";  c #2C2C2D",
":  c #2D2D2D",
">  c #2D2E2E",
",  c #2E2E2F",
"<  c #2F2F2F",
"1  c #343A41",
"2  c #43484D",
"3  c #4A4B4D",
"4  c #4C4C4C",
"5  c #4E4F4F",
"6  c #4F5256",
"7  c #515151",
"8  c #525252",
"9  c #565656",
"0  c #555658",
"q  c #555758",
"w  c #57595C",
"e  c #5C5D5F",
"r  c #5C5E5F",
"t  c #5D5E5F",
"y  c #5D5F60",
"u  c #5E5F60",
"i  c #5F6061",
"p  c #616161",
"a  c #606162",
"s  c #616263",
"d  c #626364",
"f  c #636364",
"g  c #636464",
"h  c #646465",
"j  c #646565",
"k  c #656566",
"l  c #656666",
"z  c #666667",
"x  c #666767",
"c  c #676767",
"v  c #676868",
"b  c #686868",
"n  c #96A3AF",
"m  c #9DAAB6",
"M  c #A5AFBA",
"N  c #ABB5BF",
"B  c #B0BAC4",
"V  c #B5BFC8",
"C  c #B6C0C9",
"Z  c #BAC2CA",
"A  c #BBC2CA",
"S  c #BCC4CC",
"D  c #BDC7D0",
"F  c #BFC8D0",
"G  c #C6CED5",
"H  c #C8CFD5",
"J  c #C8CFD7",
"K  c #C9D0D7",
"L  c #CBD1D7",
"P  c #CDD0D4",
"I  c #CAD1D8",
"U  c #CCD3D9",
"Y  c #CDD3D9",
"T  c #CDD3DA",
"R  c #CDD4DA",
"E  c #CED4DA",
"W  c #CED5DB",
"Q  c #CFD6DC",
"!  c #D1D6DB",
"~  c #D4D8DD",
"^  c #D4DADF",
"/  c #D5DBDF",
"(  c #D7DADE",
")  c #D6DBDF",
"_  c #D7DCE1",
"`  c #D8DDE1",
"'  c #D9DDE1",
"]  c #D9DEE3",
"[  c #DADEE2",
"{  c #DBDFE3",
"}  c #DCE0E3",
"|  c #DBE0E4",
" . c #DCE0E4",
".. c #DDE1E4",
"X. c #DDE1E5",
"o. c #DEE1E5",
"O. c #DEE2E5",
"+. c #DFE2E5",
"@. c #DCE1E6",
"#. c #DEE2E6",
"$. c #DFE2E6",
"%. c #DFE3E6",
"&. c #E0E3E7",
"*. c #E0E4E7",
"=. c #E1E4E7",
"-. c #E2E6E9",
";. c #E3E6E9",
":. c #E3E7EA",
">. c #E5E8EB",
",. c #E6E8EB",
"<. c #E6E9EC",
"1. c #E7EAEC",
"2. c #E7EAED",
"3. c #E8EAEC",
"4. c #E8EAED",
"5. c #E8EBED",
"6. c #E9ECEE",
"7. c #EAECEE",
"8. c #EAECEF",
"9. c #EBEDEF",
"0. c #EEEEEE",
"q. c #EBEDF0",
"w. c #ECEEF0",
"e. c #EDEFF1",
"r. c #EEF0F1",
"t. c #EFF0F1",
"y. c #EFF0F2",
"u. c #EFF1F2",
"i. c #EFF1F3",
"p. c #F0F1F2",
"a. c #F0F1F3",
"s. c #F0F2F3",
"d. c #F1F2F3",
"f. c #F0F2F4",
"g. c #F1F2F4",
"h. c #F1F3F4",
"j. c #F2F3F4",
"k. c #F2F3F5",
"l. c #F2F4F5",
"z. c #F3F4F5",
"x. c #F4F5F6",
"c. c #F5F6F7",
"v. c #F6F6F6",
"b. c #F7F7F7",
"n. c #F6F7F8",
"m. c #F7F8F9",
"M. c #F8F9FA",
"N. c #FAFAFB",
"B. c #FBFBFC",
"V. c #FBFCFC",
"C. c #FCFCFD",
"Z. c #FCFDFD",
"A. c #FDFDFD",
"S. c #FEFEFE",
"D. c #FFFFFF",
"F. c None",
/* pixels */
"F.F.F.F.F.F.F.F.F.F.F.F.F.F.F.F.F.F.F.F.F.F.F.F.F.F.F.F.F.F.F.F.",
"F.F.F.F.F.  X : , , < < , : ; - & $ @ o   F.F.F.F.F.F.F.F.F.F.F.",
"F.F.F.F.  9 0.A.A.C.V.A.C.m.g.2._ D m N 4   F.F.F.F.F.F.F.F.F.F.",
"F.F.F.F.# b.6.} { ..' } ' ' _ ! H Z M V b.4   F.F.F.F.F.F.F.F.F.",
"F.F.F.F.p b.................{ ' ~ L S F 6.i.4   F.F.F.F.F.F.F.F.",
"F.F.F.F.b s.&.-.=.&.-.=.=.=.&.&...~ T J 4.' s.8   F.F.F.F.F.F.F.",
"F.F.F.F.v g.-.-.-.,.-.-.,.-.-.-.-...' Q 3.' } s.8   F.F.F.F.F.F.",
"F.F.F.F.c s.,.,.-.,.,.,.,.,.>.>.,.-...I s.' ' ..i.8   F.F.F.F.F.",
"F.F.F.F.c s.2.4.4.2.4.4.4.4.4.2.4.2.>.R :.q.%...&.s.6   F.F.F.F.",
"F.F.F.F.c s.6.6.6.0.6.4.6.6.6.0.6.6.6.2.R Q @.' ~ L Z * F.F.F.F.",
"F.F.F.F.c s.w.6.q.0.w.w.6.0.w.6.0.q.6.0.6.2..._ G B n 1 F.F.F.F.",
"F.F.F.F.c s.i.i.w.s.w.s.r.i.i.i.i.i.i.w.i.w.6.-.' I C 2 F.F.F.F.",
"F.F.F.F.c g.i.i.g.s.i.i.g.i.i.i.i.s.s.s.i.i.i.6.2.' R 6 F.F.F.F.",
"F.F.F.F.c s.z.g.g.g.i.z.s.z.z.i.s.s.g.s.i.z.g.i.q.2...w F.F.F.F.",
"F.F.F.F.p z.z.g.b.g.z.g.z.z.z.z.z.g.b.g.z.z.z.z.g.i.2.e F.F.F.F.",
"F.F.F.F.d g.b.b.z.b.n.b.b.z.n.n.n.z.b.b.z.m.z.b.z.g.w.i F.F.F.F.",
"F.F.F.F.g g.n.n.n.n.n.n.n.n.n.n.n.n.n.n.n.n.n.n.n.n.i.i F.F.F.F.",
"F.F.F.F.p g.M.M.n.M.n.n.m.m.m.m.m.m.m.m.m.m.m.m.m.n.g.p F.F.F.F.",
"F.F.F.F.d g.M.M.M.M.M.M.M.M.m.M.m.m.m.M.m.m.m.m.M.M.g.d F.F.F.F.",
"F.F.F.F.p s.M.M.M.C.M.C.M.C.M.C.C.C.M.C.M.C.C.C.C.M.g.p F.F.F.F.",
"F.F.F.F.p i.V.C.B.C.C.M.V.V.V.C.M.B.V.V.C.C.V.V.C.C.g.i F.F.F.F.",
"F.F.F.F.i i.V.V.B.A.C.C.V.V.V.V.C.A.V.V.M.C.V.V.C.V.i.p F.F.F.F.",
"F.F.F.F.i i.A.V.A.V.V.A.A.A.A.A.V.V.A.V.A.V.A.V.V.V.i.u F.F.F.F.",
"F.F.F.F.u i.A.A.A.A.A.A.A.A.A.A.A.A.A.A.A.A.A.A.A.A.i.u F.F.F.F.",
"F.F.F.F.u i.A.A.A.A.A.A.A.A.A.A.A.A.A.A.A.A.A.A.A.A.i.u F.F.F.F.",
"F.F.F.F.u w.A.A.A.A.A.A.A.A.A.A.A.A.A.A.A.A.A.A.A.A.w.t F.F.F.F.",
"F.F.F.F.t i.A.A.A.A.A.A.A.A.A.A.A.A.A.A.A.A.A.A.A.A.i.t F.F.F.F.",
"F.F.F.F.q 6.A.A.A.A.A.A.A.A.A.A.A.A.A.A.A.A.A.A.A.A.4.q F.F.F.F.",
"F.F.F.F.+ ~ g.A.A.A.A.A.A.A.A.A.A.A.A.A.A.A.A.A.A.s.~ O F.F.F.F.",
"F.F.F.F.  3 L ....................................L 4   F.F.F.F.",
"F.F.F.F.F.  . * - * * - - - - * * - - - - * * - - .   F.F.F.F.F.",
"F.F.F.F.F.F.F.F.F.F.F.F.F.F.F.F.F.F.F.F.F.F.F.F.F.F.F.F.F.F.F.F."
};
