/* XPM */
static const char *numbers_xpm[] = {
/* columns rows colors chars-per-pixel */
"21 17 2 1",
"  c #000000",
". c None",
/* pixels */
".....................",
".....................",
".....................",
".....................",
"..   .........    ...",
". .  ........  ..  ..",
"...  ........  ..  ..",
"...  ........  ..  ..",
"...  .........     ..",
"...  ............  ..",
"...  ........ ...  ..",
".     . . . .     ...",
".....................",
".....................",
".....................",
".....................",
"....................."
};
