/* XPM */
static const char *open_32x32_xpm[] = {
/* columns rows colors chars-per-pixel */
"32 32 144 2",
"   c #6B5010",
".  c #725611",
"X  c #765B15",
"o  c #7C5E13",
"O  c #8A6914",
"+  c #816319",
"@  c #87681A",
"#  c #8F6D1D",
"$  c #947216",
"%  c #9B7617",
"&  c #96731E",
"*  c #9D781F",
"=  c #A27C18",
"-  c #8F6924",
";  c #986F26",
":  c #A47C21",
">  c #AA7D26",
",  c #A07528",
"<  c #A77A2A",
"1  c #AC7E2B",
"2  c #AE8917",
"3  c #AF861A",
"4  c #AE8918",
"5  c #B0861A",
"6  c #B38C1C",
"7  c #B7911F",
"8  c #BC971C",
"9  c #AB8121",
"0  c #B38523",
"q  c #B38E21",
"w  c #BC8E26",
"e  c #B5852E",
"r  c #BB8A2E",
"t  c #B49121",
"y  c #BA9422",
"u  c #BE9927",
"i  c #AD9333",
"p  c #BC9B31",
"a  c #C29D1F",
"s  c #C39324",
"d  c #CC9B25",
"f  c #C4922F",
"g  c #C99728",
"h  c #C29D2A",
"j  c #CE9D2B",
"k  c #D09E26",
"l  c #C18F30",
"z  c #C69230",
"x  c #CA9630",
"c  c #CD9A31",
"v  c #D29D31",
"b  c #CAA622",
"n  c #C3A12E",
"m  c #D2A22C",
"M  c #D7AA2E",
"N  c #DDAE2C",
"B  c #D6B226",
"V  c #D6B42B",
"C  c #DEB12C",
"Z  c #C3A334",
"A  c #C8A531",
"S  c #CBA935",
"D  c #C2A33A",
"F  c #CFAF39",
"G  c #D4A331",
"H  c #D8A531",
"J  c #D7AA34",
"K  c #DAAB33",
"L  c #D7AB3C",
"P  c #D9AD3B",
"I  c #D6B631",
"U  c #DCB335",
"Y  c #D3B33D",
"T  c #D6B839",
"R  c #E2B62C",
"E  c #E6BC2D",
"W  c #E1AD31",
"Q  c #E4B332",
"!  c #E9B632",
"~  c #EBBB33",
"^  c #E4B63E",
"/  c #E2BE39",
"(  c #EFC233",
")  c #E7C43C",
"_  c #F4C434",
"`  c #F6CB34",
"'  c #F9CC35",
"]  c #F7D234",
"[  c #FCD435",
"{  c #FED935",
"}  c #F7D739",
"|  c #FEDE3B",
" . c #DAAE40",
".. c #D2B543",
"X. c #D7B842",
"o. c #DABB46",
"O. c #E6B744",
"+. c #E6BB41",
"@. c #EFBB45",
"#. c #E2BE5D",
"$. c #E6C442",
"%. c #EFCB43",
"&. c #E5C54B",
"*. c #F2C14A",
"=. c #F8C44E",
"-. c #F8CB4E",
";. c #F1D144",
":. c #F7DC45",
">. c #FAD34D",
",. c #FCDB4B",
"<. c #E4C455",
"1. c #E4C35E",
"2. c #F6DE53",
"3. c #FFE245",
"4. c #FCE24C",
"5. c #FCE651",
"6. c #FBE359",
"7. c #FBE95D",
"8. c #E4C365",
"9. c #E6C86D",
"0. c #E8CB73",
"q. c #EBD07B",
"w. c #F5E062",
"e. c #FFE965",
"r. c #FAE56B",
"t. c #FFEA6A",
"y. c #F5E371",
"u. c #FBEB70",
"i. c #FDEA7B",
"p. c #EDD280",
"a. c #F5E683",
"s. c #FAEB86",
"d. c #FDED8B",
"f. c #F4E690",
"g. c #FDEE93",
"h. c #F3E89A",
"j. c #FAEC9A",
"k. c #FFF199",
"l. c #F7ECA4",
"z. c #F9EEA3",
"x. c #F9EBA8",
"c. c #FCF1A6",
"v. c #FEF3A9",
"b. c None",
/* pixels */
"b.b.b.b.b.b.b.b.b.b.b.b.b.b.b.b.b.b.b.b.b.b.b.b.b.b.b.b.b.b.b.b.",
"b.b.b.b.b.b.b.b.b.b.b.b.b.b.b.b.b.b.b.b.b.b.b.b.b.b.b.b.b.b.b.b.",
"b.b.b.b.b.b.b.b.b.b.b.b.b.b.b.b.b.b.b.b.b.b.b.b.b.b.b.b.b.b.b.b.",
"b.b.b.b.b.b.b.b.b.b.b.b.b.b.b.b.b.b.b.b.b.b.b.b.b.b.b.b.b.b.b.b.",
"b.b.b.b.b.b.2 2 4 4 2 b.b.b.b.b.b.b.b.b.b.b.b.b.b.b.b.b.b.b.b.b.",
"b.b.2 8 a b B V I T X.Z t b.b.b.b.b.b.b.b.b.b.b.b.b.b.b.b.b.b.b.",
"b.b.6 ( [ { { { | 3.6.e.A b.b.b.b.b.b.b.b.b.b.b.b.b.b.b.b.b.b.b.",
"b.b.y E [ [ [ { { { 3.4.6.n Z Z D D p t t 7 t 7 q t 6 t b.b.b.b.",
"b.b.y E ' ' [ [ [ { { | 4.5.t.i.d.k.c.c.c.v.c.v.v.v.v.t b.b.b.b.",
"b.b.y R ' ' [ [ [ [ { { { 3.5.e.u.s.g.z.v.c.c.v.v.v.v.t b.b.b.b.",
"b.b.u C _ ' ' ' [ ] { [ { { | 4.6.r.i.d.j.z.x.c.v.v.v.7 b.b.b.b.",
"b.b.h N _ _ _ ` ` ' ' ] ] ] ] } :.5.w.y.a.f.h.l.v.v.v.4 b.b.b.b.",
"b.b.h m ~ ~ ~ _ ( ( / R N N C N N C U K P P J L  . . .m m G m b.",
"b.b.n m Q ! ! ~ E K U $.&.<.8.8.8.8.8.8.9.p.p.p.p.p.p.q.p.p.1.b.",
"b.b.A s K W Q W M / 4.5.5.7.u.s.j.x.x.x.x.x.x.x.x.x.x.x.x.x.q.j ",
"b.b.S w v H H N K ;.4.4.4.5.5.7.u.s.j.x.x.x.x.x.x.x.x.x.x.x.0.j ",
"b.b.S 0 c v v m m ,.,.,.4.4.4.5.5.7.u.s.j.x.x.x.x.x.x.x.x.x.#.b.",
"b.b.F 9 z x v j K >.,.,.4.4.4.4.5.5.5.7.u.s.j.x.x.x.x.x.x.x.L b.",
"b.b.F : l l f g O.-.>.>.,.,.,.4.4.4.5.5.5.7.u.s.j.x.x.x.x.x.d b.",
"b.b.L : e e r g *.-.-.-.-.>.>.,.,.4.4.4.5.5.5.7.u.s.h.x.x.p.m b.",
"b.b.X.& 1 e r j =.=.=.-.-.-.>.>.,.,.,.4.4.4.5.5.5.7.u.s.j.8.d b.",
"b.b.Y # < 1 w K =.=.=.=.=.-.-.-.-.>.,.,.,.4.4.4.5.5.5.7.u.K b.b.",
"b.b.X.@ , < s @.=.=.=.=.=.=.=.=.-.-.>.>.>.,.,.4.4.5.4.5.4.m b.b.",
"b.b.X.+ ; > j =.=.=.=.=.=.=.=.=.-.=.-.-.>.>.>.,.4.4.4.4.) K b.b.",
"b.b.o.X - y @.=.=.=.=.=.=.=.=.=.=.=.=.-.-.-.>.>.>.,.,.4.J b.b.b.",
"b.b...X 0 J =.=.=.=.=.=.=.=.=.=.=.=.=.=.-.=.-.-.>.>.,.%.T b.b.b.",
"b.b.i w P O.O.O.O.O.O.O.O.O.O.O.O.O.O.O.O.O.O.O.+.^ ^ M b.b.b.b.",
"b.b.b.$ 5 6 5 5 = % $ O O o X .             . . . X + b.b.b.b.b.",
"b.b.b.b.b.b.b.b.b.b.b.b.b.b.b.b.b.b.b.b.b.b.b.b.b.b.b.b.b.b.b.b.",
"b.b.b.b.b.b.b.b.b.b.b.b.b.b.b.b.b.b.b.b.b.b.b.b.b.b.b.b.b.b.b.b.",
"b.b.b.b.b.b.b.b.b.b.b.b.b.b.b.b.b.b.b.b.b.b.b.b.b.b.b.b.b.b.b.b.",
"b.b.b.b.b.b.b.b.b.b.b.b.b.b.b.b.b.b.b.b.b.b.b.b.b.b.b.b.b.b.b.b."
};
