/* XPM */
static const char *paste_16_xpm[] = {
/* columns rows colors chars-per-pixel */
"16 16 76 1 ",
"  c None",
". c #76665D",
"X c #525F73",
"o c #5A636F",
"O c #726F73",
"+ c #66717F",
"@ c #7D7E7E",
"# c #A16528",
"$ c #A2692D",
"% c #A76E2E",
"& c #AC7335",
"* c #B5783B",
"= c #B77C3D",
"- c #BA7F3F",
"; c #B87F43",
": c #8B7B68",
"> c #937E65",
", c #BC8342",
"< c #B98145",
"1 c #BA8346",
"2 c #BB8547",
"3 c #BE8644",
"4 c #BD8648",
"5 c #BE894A",
"6 c #BF8A4B",
"7 c #B69768",
"8 c #AC9775",
"9 c #AD9875",
"0 c #C18A46",
"q c #C38D48",
"w c #C08C4C",
"e c #C28E4D",
"r c #C5904B",
"t c #C3904F",
"y c #C8944D",
"u c #C9964F",
"i c #CA974F",
"p c #C79657",
"a c #D0A05C",
"s c #747C88",
"d c #7F848B",
"f c #8E8F90",
"g c #9EA6B0",
"h c #A2A8AF",
"j c #A5AAB0",
"k c #AAAEB3",
"l c #A1ACBA",
"z c #ACB2B6",
"x c #B0B5B9",
"c c #B2B9BC",
"v c #B6BCBE",
"b c #BAC0C2",
"n c #BCC2C2",
"m c #ABC0D7",
"M c #AFC3D9",
"N c #AEC4D9",
"B c #B4C7DB",
"V c #B7CADE",
"C c #B7CCDE",
"Z c #B9CBDE",
"A c #BACEE1",
"S c #BDCEE1",
"D c #C4CBD5",
"F c #C7D7E5",
"G c #D6E6F6",
"H c #DBE9F7",
"J c #E2EBF2",
"K c #E0ECF8",
"L c #E5EFF9",
"P c #E7F0F7",
"I c #EAF2FA",
"U c #EFF4F9",
"Y c #EEF5FB",
"T c #F3F8FC",
"R c #F8FBFD",
"E c #FDFEFE",
/* pixels */
"      X         ",
"    Osos.       ",
" paalDDDfaa&    ",
" tii@ddd:ii%    ",
" tiiii79998>    ",
" eririnEEEEEF   ",
" eqrrrnRRRRRJC  ",
" 6qqqqvTTTTTUAN ",
" 60000cIUYYYYLZ ",
" 43333xIIIIIIIS ",
" 2,,,,zLLLLLLLZ ",
" 1----kLHLHLHLB ",
" 1====jHHHHHHHN ",
" ;****hGGGGGGGm ",
" $####gGGGGGGGm ",
"                "
};
