/* XPM */
static const char *play_32_xpm[] = {
/* columns rows colors chars-per-pixel */
"32 32 18 1 ",
"  c None",
". c None",
"X c None",
"o c None",
"O c None",
"+ c None",
"@ c #22B14C",
"# c None",
"$ c None",
"% c None",
"& c None",
"* c None",
"= c None",
"- c None",
"; c None",
": c None",
"> c None",
", c None",
/* pixels */
",,,,,,,,,,>=%+o  o+%=>,,,,,,,,,,",
",,,,,,,,;% @@@@@@@@@@ %;,,,,,,,,",
",,,,,,>& @@@@@@@@@@@@@@ &>,,,,,,",
",,,,,;O@@@@@@@@@@@@@@@@@@O;,,,,,",
",,,,-X@@@@@@@@@@@@@@@@@@@@X-,,,,",
",,,;X@@@@@@@@@@@@@@@@@@@@@@X;,,,",
",,>O@@@@@@@@@@@@@@@@@@@@@@@@O>,,",
",,&@@@@@@@@@@@@@@@@@@@@@@@@@@&,,",
",; @@@@@@@@@*.@@@@@@@@@@@@@@@ ;,",
",%@@@@@@@@@@,;#@@@@@@@@@@@@@@@%,",
"> @@@@@@@@@@,,,*.@@@@@@@@@@@@@ >",
"=@@@@@@@@@@@,,,,;#@@@@@@@@@@@@@=",
"%@@@@@@@@@@@,,,,,,*.@@@@@@@@@@@%",
"+@@@@@@@@@@@,,,,,,,:#@@@@@@@@@@+",
"o@@@@@@@@@@@,,,,,,,,,*.@@@@@@@@o",
" @@@@@@@@@@@,,,,,,,,,,;#@@@@@@@ ",
" @@@@@@@@@@@,,,,,,,,,,:#@@@@@@@ ",
"o@@@@@@@@@@@,,,,,,,,,*.@@@@@@@@o",
"+@@@@@@@@@@@,,,,,,,:#@@@@@@@@@@+",
"%@@@@@@@@@@@,,,,,,*.@@@@@@@@@@@%",
"=@@@@@@@@@@@,,,,:#@@@@@@@@@@@@@=",
"> @@@@@@@@@@,,,*.@@@@@@@@@@@@@ >",
",%@@@@@@@@@@,;#@@@@@@@@@@@@@@@%,",
",; @@@@@@@@@*.@@@@@@@@@@@@@@@ ;,",
",,&@@@@@@@@@@@@@@@@@@@@@@@@@@&,,",
",,>O@@@@@@@@@@@@@@@@@@@@@@@@O>,,",
",,,;X@@@@@@@@@@@@@@@@@@@@@@X;,,,",
",,,,-X@@@@@@@@@@@@@@@@@@@@X-,,,,",
",,,,,;O@@@@@@@@@@@@@@@@@@O;,,,,,",
",,,,,,>& @@@@@@@@@@@@@@ &>,,,,,,",
",,,,,,,,;% @@@@@@@@@@ %;,,,,,,,,",
",,,,,,,,,,>=$+o  o+%=>,,,,,,,,,,"
};
