/* XPM */
static const char *replace_16x16_xpm[] = {
/* columns rows colors chars-per-pixel */
"16 16 36 1",
"  c #000000",
". c #010101",
"X c #030303",
"o c #040404",
"O c #050505",
"+ c #060606",
"@ c #070707",
"# c #090909",
"$ c #0A0A0A",
"% c #0B0B0B",
"& c #0C0C0C",
"* c #0D0D0D",
"= c #121212",
"- c #141414",
"; c #1A1A1A",
": c #1B1B1B",
"> c #1C1C1C",
", c #1E1E1E",
"< c #242424",
"1 c #272727",
"2 c #2B2B2B",
"3 c #2E2E2E",
"4 c #313131",
"5 c #323232",
"6 c #333333",
"7 c #3D3D3D",
"8 c #454545",
"9 c #525252",
"0 c #565656",
"q c #6B6B6B",
"w c #787878",
"e c #929292",
"r c #9C9C9C",
"t c #D6D6D6",
"y c #DADADA",
"u c None",
/* pixels */
"uuuuuuuuuuuuuuuu",
"uuu0O  &uuuuuuuu",
"uu, O1<O 6uuuuuu",
"uu 2uuuy, uuuuuu",
"u&Ouuuuuu :uuuuu",
"u 6uuuuuu:Ouuuuu",
"u&-uuuuuu&:uuuuu",
"u6 uuuuuu 9uuuuu",
"uu OuuuuO uuuuuu",
"uurO O    7uuuuu",
"uuutq16wye  uuuu",
"uuuuuuuuuu%  uuu",
"uuuuuuuuuuu%  uu",
"u-=u==u==uuu% %u",
"u88u88u88uuuuuuu",
"uuuuuuuuuuuuuuuu"
};
