/* XPM */
static const char *resize_xpm[] = {
/* columns rows colors chars-per-pixel */
"16 16 52 1",
"  c #2345AB",
". c #2244AC",
"X c #294BAF",
"o c #2446B2",
"O c #294BBC",
"+ c #3254B7",
"@ c #2F51C8",
"# c #3C5EC2",
"$ c #3658D4",
"% c #3759D6",
"& c #3D5FE0",
"* c #3E60E2",
"= c #486ACE",
"- c #5476DA",
"; c #5577DC",
": c #4163E9",
"> c #4264EA",
", c #5E80E5",
"< c #5F81E6",
"1 c #6587ED",
"2 c #6688EE",
"3 c #9FB4E5",
"4 c #ACC8E3",
"5 c #ACC8E4",
"6 c #AEC9E4",
"7 c #AEC9E5",
"8 c #AFCAE4",
"9 c #B0CBE5",
"0 c #B3CDE6",
"q c #BBCAED",
"w c #BAD1E8",
"e c #BAD1E9",
"r c #C2D7EB",
"t c #C3D7EC",
"y c #C4D8EB",
"u c #C5D8EC",
"i c #C5D9EC",
"p c #C6D9EC",
"a c #C8DBED",
"s c #C9DBED",
"d c #CBDDEE",
"f c #CEDFEF",
"g c #D1E0F0",
"h c #D6E4F2",
"j c #DCE8F4",
"k c #E0EAF5",
"l c #E0EBF5",
"z c #E5EEF7",
"x c #E9F0F8",
"c c #E9F1F8",
"v c #EAF1F9",
"b c None",
/* pixels */
"122bbbbbbbbb211b",
",,bbbbbbbbbbb1;b",
";bb---------bb;b",
"bb=qxxxxcxcq=bbb",
"bb#clllllllc=bbb",
"bb+zjjjjjjjz+bbb",
"bbXlhhguq06yXbbb",
"bb jde75447t bbb",
"bb.f6466444r bbb",
"bboy6667668yobbb",
"bbOa9999899pObbb",
"bb@3dyyyppd3@bbb",
"%bb%%$$%$%$%bb%b",
"&*bbbbbbbbbbb**b",
":::bbbbbbbbb:::b",
"bbbbbbbbbbbbbbbb"
};
