/* XPM */
static const char *results_32_xpm[] = {
/* columns rows colors chars-per-pixel */
"32 32 49 1 ",
"  c None",
". c #FF6319",
"X c #FF631A",
"o c #FF631B",
"O c #FF641A",
"+ c #FF651A",
"@ c #FF641B",
"# c #FF6C1F",
"$ c #FF6D20",
"% c #FF6F21",
"& c #FFB64C",
"* c #FFB74C",
"= c #FFB74D",
"- c #FFC054",
"; c #FFC154",
": c #FFC055",
"> c #FFC355",
", c #FFC357",
"< c #FFC457",
"1 c #FFC557",
"2 c #FFC458",
"3 c #FFC759",
"4 c #FFC75A",
"5 c #FFC85A",
"6 c #FFC85B",
"7 c #FFCA5E",
"8 c #FFCB5F",
"9 c #FFCC5D",
"0 c #FFCD61",
"q c #FFCE61",
"w c #FFE46F",
"e c #FFE370",
"r c #FFE470",
"t c #47568C",
"y c #49598E",
"u c #4A598E",
"i c #4A5B8F",
"p c #4C5B8D",
"a c #74708B",
"s c #6D7191",
"d c #627299",
"f c #61729B",
"g c #62739B",
"h c #6D7A98",
"j c #748096",
"k c #6AA8FF",
"l c #6AA9FF",
"z c #6BA9FF",
"x c #69AAFF",
/* pixels */
"       .O  zz                   ",
"     OOOO  xzzxz                ",
"    OOOOO  xzxzxz               ",
"   OOOOOO  xzzxzzz              ",
"  OOOOOOO  xzzzzzzz             ",
" .OOOOOOO  zzzzzxzz             ",
" OOOOOOO     zzxzzxk            ",
"OOOOOO@       xxxkkz            ",
"OOOOOO         xzzzz            ",
"OOOOOO                          ",
"OOOOOO                          ",
"OOOOOO         ==,--6           ",
"OOOOOO        ,&==&&3           ",
" OOOOO$      6&&==&=            ",
" OOOO$0r    3&&&&&&,            ",
" OOO$0errr3&&&&&&&&      &&&&&  ",
"  O#7rrrww1&&&&&&&1     &&&&&&  ",
"   0rrrrrw1&&&&&&,      &&&&&&  ",
"    wrrrrr1&&&&&1       &&&&&&  ",
"      rrrr1&&&,         &&&&&&  ",
"         r936           &&&&&&  ",
"                        &&&&&&  ",
"                        &&&&&&  ",
"         rrrrrr         &&&&&&  ",
"         rrrrrr  zzkzz  &&&&&&  ",
"         rrrrrr  kxxzzz &&&&&&  ",
"  OOOOO  rrrrrr  zkzxzk &&&&&&  ",
"  OOOOOO rrrrrr  zxzkxz &&&&&&  ",
"  OOOOOo rrrrrr  zzzzzx &&&&&&  ",
"  OOOOOo rrrrrr  zxzzzz &&&&&&  ",
"fdaaaaasfhjjjjjfyiuiiiiupppppuuu",
"fffffffffffffffftttttttttttttttt"
};
