/* XPM */
static const char *save_32x32_xpm[] = {
/* columns rows colors chars-per-pixel */
"32 32 154 2",
"   c None",
".  c #060A0A",
"X  c #141517",
"o  c #1C1515",
"O  c #1C1E1E",
"+  c #1C1E21",
"@  c #1E2023",
"#  c #27292C",
"$  c #292A2C",
"%  c #323234",
"&  c #343539",
"*  c #3B3C3E",
"=  c #423C3E",
"-  c #1F405A",
";  c #3C4043",
":  c #20435F",
">  c #244763",
",  c #2B4D67",
"<  c #254E6E",
"1  c #31506C",
"2  c #265173",
"3  c #335570",
"4  c #375873",
"5  c #434446",
"6  c #434649",
"7  c #46484C",
"8  c #4B4D4F",
"9  c #494D53",
"0  c #4D5155",
"q  c #535655",
"w  c #535759",
"e  c #5F6364",
"r  c #646567",
"t  c #646768",
"y  c #6A6A6B",
"u  c #6E6F71",
"i  c #6F7072",
"p  c #757376",
"a  c #3F5783",
"s  c #3E5884",
"d  c #3B5B9D",
"f  c #2E5CAD",
"g  c #3976A2",
"h  c #445D8C",
"j  c #406380",
"k  c #42608A",
"l  c #437FAF",
"z  c #4273B3",
"x  c #1C55C6",
"c  c #1D5BCA",
"v  c #205CCA",
"b  c #1E64D2",
"n  c #2064D2",
"m  c #226AD4",
"M  c #2B6FD5",
"N  c #2C70D5",
"B  c #357EDC",
"V  c #096DE4",
"C  c #0570E5",
"Z  c #0A71E5",
"A  c #0276EA",
"S  c #0179EC",
"D  c #0C7BEC",
"F  c #1575E5",
"G  c #1778E6",
"H  c #187AE7",
"J  c #137CEB",
"K  c #1B7FE9",
"L  c #207FE9",
"P  c #4683B3",
"I  c #4B86B6",
"U  c #518DBA",
"Y  c #5690BD",
"T  c #3680DD",
"R  c #3880DD",
"E  c #0280EF",
"W  c #1382EE",
"Q  c #1B83EB",
"!  c #1D88EC",
"~  c #0283F1",
"^  c #0B86F2",
"/  c #0A8BF3",
"(  c #1486F0",
")  c #148AF3",
"_  c #1B8CF2",
"`  c #0B93F6",
"'  c #1796F6",
"]  c #1E92F4",
"[  c #2286EB",
"{  c #2B83EA",
"}  c #238CEC",
"|  c #2C8CED",
" . c #2196F5",
".. c #2398F6",
"X. c #259AF8",
"o. c #3194F0",
"O. c #359AF3",
"+. c #4994CC",
"@. c #5A94C3",
"#. c #439CEB",
"$. c #4C9EED",
"%. c #4CA1ED",
"&. c #46A3F2",
"*. c #4DA5F1",
"=. c #4EACF5",
"-. c #54A6F0",
";. c #53AEF5",
":. c #54B0F5",
">. c #5CB2F6",
",. c #5CB4FA",
"<. c #5FB9FD",
"1. c #77ACE5",
"2. c #7ABEEF",
"3. c #61B6F9",
"4. c #63BAFC",
"5. c #929294",
"6. c #A7A6A6",
"7. c #A6A8AC",
"8. c #A9A8AC",
"9. c #BCB7BB",
"0. c #AACADF",
"q. c #9DC3E0",
"w. c #9FC8E4",
"e. c #92C8EB",
"r. c #A3C5E0",
"t. c #A4CCE4",
"y. c #A8C8E1",
"u. c #A2C6E8",
"i. c #B9D4E4",
"p. c #CDDFDB",
"a. c #D3D0D2",
"s. c #D5DADD",
"d. c #DBE9DD",
"f. c #E3EADA",
"g. c #EBF1DF",
"h. c #D9DDE1",
"j. c #DDE1E4",
"k. c #D7E6EB",
"l. c #D3E2F2",
"z. c #E2E4E6",
"x. c #E6E9E7",
"c. c #E4E6EC",
"v. c #E5E8EA",
"b. c #EAEBEE",
"n. c #ECF2E0",
"m. c #EEF4E9",
"M. c #F3F7EF",
"N. c #F5F8EF",
"B. c #EEEEF1",
"V. c #F0EFF2",
"C. c #EFF1F3",
"Z. c #F5F4F5",
"A. c #F4F8F0",
"S. c #FDFCFC",
/* pixels */
"                                                                ",
"    v c c c f k h h h h h h s h s s s s h 4 h h d v             ",
"    c R B R z q w w w w w 0 y t t y r r r r r y h { c           ",
"    c $.>.4.@.9 0 0 9 0 9 e Z.Z.Z.Z.Z.Z.x.V.Z.Z.e =.B c         ",
"    v $.>.3.@.5 9 7 7 7 5 w Z.Z.Z.Z.Z.a.  o Z.Z.4 4.-.B c       ",
"    x %.3.4.Y * ; ; ; ; * 0 Z.B.B.B.V.9.    b.Z.3 4.>.%.c v     ",
"    v $.3.4.Y % & & & & % 6 j.s.s.s.s.8.    s.j.1 4.>.>.M v     ",
"    v %.>.3.U $ $ $ $ $ $ ; j.h.s.h.j.8.    h.z.1 4.3.>.M v     ",
"    c %.>.3.U O @ @ @ @ @ * v.j.j.j.z.s.* y v.v.> 4.>.>.M v     ",
"    c $.>.3.I X X X X X X * C.b.b.b.b.b.C.C.v.C.> 4.>.>.M v     ",
"    c #.:.>.P . . . . . . @ p i i i i i p y 5.6.- <.>.>.M v     ",
"    c #.:.>.P               .         .         > 4.;.;.M v     ",
"    v #.;.>.+.< 2 2 2 2 2 2 2 2 2 2 2 2 2 2 2 2 g ,.:.:.M v     ",
"    v #.;.;.>.,.4.4.<.<.<.<.<.<.4.<.<.<.<.<.<.<.,.>.;.=.M c     ",
"    c O.;.:.;.:.:.:.:.:.:.:.:.:.:.:.:.:.:.:.:.:.:.=.=.=.M v     ",
"    v #.*.;.>.e.e.e.e.e.e.e.e.e.e.e.e.e.e.e.e.e.2.=.*.=.M v     ",
"    c } ....*.n.m.m.m.m.m.m.m.m.m.m.m.m.m.m.m.m.t.' X.X.b v     ",
"    v } ..] &.n.S.S.S.S.S.S.S.S.S.S.S.S.S.S.S.A.t.`  .X.m v     ",
"    v ! ] ] O.p.u.u.u.u.u.u.u.u.u.u.u.u.u.u.w.i.t.`  . .m v     ",
"    v [ ] ] O.g.S.S.S.S.S.S.S.S.S.S.S.S.S.S.S.M.t.` _  .m v     ",
"    v Q _ _ o.g.S.S.S.S.S.S.S.S.S.S.S.S.S.S.S.A.u.^ _ ] b v     ",
"    v Q _ _ o.g.S.S.S.S.S.S.S.S.S.S.S.S.S.S.S.A.u.^ _ _ m v     ",
"    v K _ ( | d.l.l.l.l.l.l.l.l.l.l.l.l.l.l.l.k.w.~ ) ( n c     ",
"    c H ( W | g.S.S.S.S.S.S.S.S.S.S.S.S.S.S.S.A.w.E Q ) n v     ",
"    v G W J | g.S.S.S.S.S.S.S.S.S.S.S.S.S.S.S.M.w.D W ( n c     ",
"    v G W D { f.c.c.c.c.c.c.c.c.c.c.c.c.c.c.c.x.y.S J W n x     ",
"    v G J J { g.S.S.S.S.S.S.S.S.S.S.S.S.S.S.S.A.y.S J J b x     ",
"    c G J D { g.M.M.M.M.M.M.M.M.M.A.M.M.M.A.M.N.0.S F D b c     ",
"    c F J F K y.q.q.q.q.q.q.q.q.q.q.q.q.q.q.q.u.1.A J D b c     ",
"    v G G F F C V Z V V V V V Z V V V V V V V V V F F G b c     ",
"    v v v v x v v v v v c v v v v v c v v v v v v v v v v x     ",
"                                                                "
};
