/* XPM */
static const char *save_16x16_xpm[] = {
/* columns rows colors chars-per-pixel */
"16 16 16 1",
"  c #000000",
". c #800000",
"X c #008000",
"o c #808000",
"O c #000080",
"+ c #800080",
"@ c #008080",
"# c #808080",
"$ c None",
"% c #FF0000",
"& c #00FF00",
"* c #FFFF00",
"= c #0000FF",
"- c #FF00FF",
"; c #00FFFF",
": c #FFFFFF",
/* pixels */
"$$$$$$$$$$$$$$$$",
"$$$$$$$$$$$$$$$$",
"$$              ",
"$$ o $$$$$$$$ $ ",
"$$ o $$$$$$$$   ",
"$$ o $$$$$$$$ o ",
"$$ o $$$$$$$$ o ",
"$$ o $$$$$$$$ o ",
"$$ o $$$$$$$$ o ",
"$$ oo        oo ",
"$$ oooooooooooo ",
"$$ oo         o ",
"$$ oo      $$ o ",
"$$ oo      $$ o ",
"$$ oo      $$ o ",
"$$$             "
};
