/* XPM */
static const char *settings_32x32_xpm[] = {
/* columns rows colors chars-per-pixel */
"32 32 153 2",
"   c None",
".  c #070808",
"X  c #0C0C0C",
"o  c #100F0F",
"O  c #11100F",
"+  c #0D0F12",
"@  c #0F1014",
"#  c #131313",
"$  c #181717",
"%  c #171817",
"&  c #161618",
"*  c #161A1F",
"=  c #1B1B1B",
"-  c #201F1E",
";  c #1F201E",
":  c #22211F",
">  c #181E23",
",  c #1F2223",
"<  c #1E252B",
"1  c #242423",
"2  c #282724",
"3  c #292927",
"4  c #21262D",
"5  c #282728",
"6  c #27292A",
"7  c #2C2B2C",
"8  c #33312F",
"9  c #212730",
"0  c #222930",
"q  c #2E2F30",
"w  c #2F353C",
"e  c #333333",
"r  c #393936",
"t  c #3B3B3B",
"y  c #363C44",
"u  c #393E45",
"i  c #3E4142",
"p  c #3E444D",
"a  c #434343",
"s  c #484744",
"d  c #474947",
"f  c #45484C",
"g  c #4C4B4B",
"h  c #504F4D",
"j  c #50504F",
"k  c #414750",
"l  c #424A52",
"z  c #4B4E53",
"x  c #4C5053",
"c  c #4D535B",
"v  c #545455",
"b  c #585957",
"n  c #51565B",
"m  c #55595D",
"M  c #5C5C5B",
"N  c #605F5E",
"B  c #525761",
"V  c #565C64",
"C  c #5C5D61",
"Z  c #5C6065",
"A  c #5C6269",
"S  c #646464",
"D  c #686666",
"F  c #62666B",
"G  c #686768",
"H  c #65696C",
"J  c #6D6C6D",
"K  c #6F706F",
"L  c #656B73",
"P  c #6C6F76",
"I  c #6E7176",
"U  c #6C737B",
"Y  c #737474",
"T  c #73767B",
"R  c #74787D",
"E  c #7A7A7A",
"W  c #757B83",
"Q  c #787F87",
"!  c #797F89",
"~  c #7E8285",
"^  c #7D838B",
"/  c #7F8790",
"(  c #838485",
")  c #82868C",
"_  c #86898D",
"`  c #8A8A8A",
"'  c #808791",
"]  c #858B93",
"[  c #8A8E94",
"{  c #828998",
"}  c #888D98",
"|  c #8E9294",
" . c #8C929B",
".. c #939395",
"X. c #92959B",
"o. c #95999D",
"O. c #9A9B9D",
"+. c #8F97A4",
"@. c #8F99A1",
"#. c #9297A1",
"$. c #949BA2",
"%. c #999EA0",
"&. c #959FAA",
"*. c #999FA8",
"=. c #97A0A9",
"-. c #9CA3AC",
";. c #9EA8AF",
":. c #A5A5A6",
">. c #A2A6AC",
",. c #A6AAAF",
"<. c #AAABAD",
"1. c #A3AAB4",
"2. c #A9AEB3",
"3. c #A6AFB9",
"4. c #ABB0B6",
"5. c #ADB3BB",
"6. c #B6B9BD",
"7. c #BABBBD",
"8. c #B3BAC3",
"9. c #B5BDC9",
"0. c #B7C0C7",
"q. c #BCC1C5",
"w. c #BDC4CB",
"e. c #C4C6C7",
"r. c #C2C5CB",
"t. c #C4CACF",
"y. c #C8CACD",
"u. c #C4CCD5",
"i. c #CACFD5",
"p. c #C5CCD8",
"a. c #C8CFD8",
"s. c #CED1D4",
"d. c #CCD3DC",
"f. c #D1D2D5",
"g. c #D3D6DC",
"h. c #D6DADE",
"j. c #D9DADC",
"k. c #D5DBE2",
"l. c #DBDEE2",
"z. c #DEE2E6",
"x. c #DCE2EA",
"c. c #E2E4E5",
"v. c #E3E5E8",
"b. c #E6E8EB",
"n. c #EAECEE",
"m. c #E2E7F0",
"M. c #E5EBF3",
"N. c #EDEFF1",
"B. c #EEF1F4",
"V. c #F3F4F5",
"C. c #F4F5F8",
"Z. c #F7F9FA",
"A. c #FDFEFE",
/* pixels */
"                                                                ",
"                                                                ",
"        e H ] O.O.%.=.O.%.%.%.%.%.%.%.%.%.%.O.O.%.` L e         ",
"      n 8.c.C.A.A.A.A.A.A.A.A.A.A.A.A.A.A.A.A.A.A.C.c.6.n       ",
"    6 5.A.<.M M N b N b M M M M M M M b M N N N N M 2.A.5.6     ",
"    L b.O.h ` ` ( ` ( ` ` ` E ` ` ` ` ` ` ` ( ` ( ` h O.v.L     ",
"    ] Z.N ( Y Y E E E Y E G J Y Y E J b K E Y Y Y E E M Z.]     ",
"    ] N.N K J K J b D Y b <.V.Y G S ( j.J G K Y K J Y N M.}     ",
"    ) M.b G G S S :.D M a O.A.` e r f.n.D S J x N D D b m.'     ",
"    ^ m.h N C h J Z.j.e r 7.V.j.:.<.z.s.r d a 2.K v M h m.)     ",
"    ! x.d a g b 8 7.Z.f.V.Z.V.V.Z.B.w.i.<.g :.w.%.t b s x.!     ",
"    W x.e b d 3 = :.V.Z.n.<.T S v ` l.r.d.w.2.>.r h g t x.W     ",
"    U g.1 v.n.G :.C.N.( - $ 2 e # o.i.= J 8.=...1 7 7 3 k.W     ",
"    U k.& T n.N.N.c.e X e a a t : c.o.O $ r 1.1.~ s :.[ r.U     ",
"    L d.6 X ~ M.g.= . a t 2 o X 7 n.s > u $ 2 1.-.2.9.) w.L     ",
"    F d.X X e.h.N.6.= + o 1 ..7.e.g.7 o e e o d 3.@.C X a.L     ",
"    A 0.E O.x.| e c.n.d v N.V.M.i.2.r.v X - = . ( 8.-   d.A     ",
"    V 4.q.u.u.d   o  .c.k.r.e.j.q.] L 1.8 . =   r 8.~ $ w.V     ",
"    B 5.e >.5.$ X .   o.8.4.s.%._ ! L ! ]       + $.>.1.3.B     ",
"    c 8.X o.) . # X = ,.%.2.Y M t k ' ! ] _ ` X. .| W C 2.c     ",
"    z 2.7 ) 2.$ . . 1 [ ~ ^ t X.$.z X._ ] ) P W I P 7...#.z     ",
"    p 1.m _ n.v   + . F U C A 4 M ..o.[ | o $   . b i.h.#.k     ",
"    p &.m w.k.$     7 M c x c ) O.o.~ O.i S Z.b . z y.e.} p     ",
"    u } l.l.8._ X r 9.>.u n C T ~ ( Q ` . & N.n.` j.Z.s.} u     ",
"    y } T 2.r.a.3.;.&.g X f H T ) Y M .     q.x.Z.V.y.~ } u     ",
"    w ;.# X 6 P 3.] ] X     X e 2 v v...# ( V.N...5 . # =.w     ",
"    4 ^ R 1 , . 6  .+.I # g Y     # g.B.n.N.z.7 X = 1 R ' <     ",
"    @ c #.R i a $ : #.;.1.8.w.2   . 1 y.g.j.1 # a a T +.c @     ",
"      * l W  .+.=. .} }  .] ] #.=.*.} ^ ] ^ } =.#. .W l *       ",
"        + > < 0 0 0 4 9 9 < 0 0 0 0 0 9 4 4 0 9 0 < > +         ",
"                                                                ",
"                                                                "
};
