/* XPM */
static const char *stop_32x32_xpm[] = {
/* columns rows colors chars-per-pixel */
"32 32 164 2",
"   c #2F0202",
".  c #350101",
"X  c #3D0202",
"o  c #440202",
"O  c #4C0303",
"+  c #4E0F0F",
"@  c #540303",
"#  c #5B0404",
"$  c #520909",
"%  c #5D0B0B",
"&  c #630404",
"*  c #6B0505",
"=  c #650C0C",
"-  c #6A0D0D",
";  c #740606",
":  c #7A0303",
">  c #730E0E",
",  c #7C0909",
"<  c #6C1111",
"1  c #741414",
"2  c #7A1313",
"3  c #761E1E",
"4  c #4C2020",
"5  c #5D2525",
"6  c #5D2A2A",
"7  c #6B2F2F",
"8  c #7B2525",
"9  c #7F2828",
"0  c #6A3737",
"q  c #6C3B3B",
"w  c #743434",
"e  c #703E3E",
"r  c #7D3838",
"t  c #7E4444",
"y  c #794949",
"u  c #7D5454",
"i  c #785B5B",
"p  c #870202",
"a  c #8C0303",
"s  c #840A0A",
"d  c #8D0A0A",
"f  c #950303",
"g  c #980707",
"h  c #930B0B",
"j  c #9C0C0C",
"k  c #831212",
"l  c #8C1414",
"z  c #821818",
"x  c #881B1B",
"c  c #921414",
"v  c #9E1111",
"b  c #931919",
"n  c #991B1B",
"m  c #A10F0F",
"M  c #A41212",
"N  c #AC1414",
"B  c #A51919",
"V  c #A81E1E",
"C  c #B11616",
"Z  c #B61818",
"A  c #B91919",
"S  c #832A2A",
"D  c #8B2C2C",
"F  c #9D2323",
"G  c #962C2C",
"H  c #9D2828",
"J  c #833333",
"K  c #8A3E3E",
"L  c #933131",
"P  c #9B3232",
"I  c #9B3D3D",
"U  c #AB2323",
"Y  c #AF2929",
"T  c #B22D2D",
"R  c #A23535",
"E  c #AA3737",
"W  c #A63939",
"Q  c #B53333",
"!  c #B83737",
"~  c #B33D3D",
"^  c #BB3B3B",
"/  c #C11D1D",
"(  c #8D4141",
")  c #854E4E",
"_  c #AB4141",
"`  c #AF4A4A",
"'  c #B24040",
"]  c #BE4242",
"[  c #BA4B4B",
"{  c #A95D5D",
"}  c #896161",
"|  c #876868",
" . c #916E6E",
".. c #977676",
"X. c #947B7B",
"o. c #9A7B7B",
"O. c #A27777",
"+. c #AA7575",
"@. c #C24444",
"#. c #C94747",
"$. c #C54B4B",
"%. c #CB4D4D",
"&. c #D64F4F",
"*. c #C15555",
"=. c #CC5353",
"-. c #C35A5A",
";. c #CE5858",
":. c #D55454",
">. c #DD5353",
",. c #D25C5C",
"<. c #DA5C5C",
"1. c #E35757",
"2. c #E15B5B",
"3. c #ED5A5A",
"4. c #F25C5C",
"5. c #D66363",
"6. c #DA6666",
"7. c #DC6C6C",
"8. c #DF7070",
"9. c #E36363",
"0. c #E66D6D",
"q. c #E27474",
"w. c #EB7373",
"e. c #E67A7A",
"r. c #E87E7E",
"t. c #F27B7B",
"y. c #A18383",
"u. c #A48A8A",
"i. c #AA8E8E",
"p. c #A79090",
"a. c #AD9494",
"s. c #AD9999",
"d. c #B69797",
"f. c #B59898",
"g. c #BBA1A1",
"h. c #C19D9D",
"j. c #EB8383",
"k. c #F58080",
"l. c #FA8484",
"z. c #F18B8B",
"x. c #FD8888",
"c. c #F69393",
"v. c #F99797",
"b. c #CCA2A2",
"n. c #C5A8A8",
"m. c #C2B6B6",
"M. c #CAB3B3",
"N. c #C5BFBF",
"B. c #CAB9B9",
"V. c #D4B9B9",
"C. c #D8BCBC",
"Z. c #C4C2C2",
"A. c #CAC3C3",
"S. c #CCCCCC",
"D. c #D6CDCD",
"F. c #D5D5D5",
"G. c #DDD6D6",
"H. c #DBDBDB",
"J. c #E3DEDE",
"K. c #E4E4E4",
"L. c #E9E6E6",
"P. c #EDECEC",
"I. c #F6F6F6",
"U. c None",
/* pixels */
"U.U.U.U.U.U.U.U.U.U.U.U.U.U.U.U.4.4.4.4.3.3.U.U.U.U.U.U.U.U.U.U.",
"U.U.U.U.U.U.U.U.3.9.0.w.t.t.l.x.x.k.t.w.w.0.2.U.U.U.U.U.U.U.U.U.",
"U.U.U.U.U.U.U.1.6.e.j.j.z.c.c.v.c.z.z.j.j.e.q.<.U.U.U.U.U.U.U.U.",
"U.U.U.U.U.U.>.<.8.e.e.j.j.z.z.z.z.z.z.j.r.q.q.7.:.U.U.U.U.U.U.U.",
"U.U.U.U.U.&.:.7.7.8.e.e.e.j.j.j.j.j.e.e.e.8.7.6.6.%.U.U.U.U.U.U.",
"U.U.U.U.%.=.,.5.7.7.7.q.q.e.e.e.e.e.q.8.8.7.6.5.,.;.#.#.U.U.U.U.",
"U.U.U.#.#.=.;.,.5.5.-.( 7.8.8.8.8.7.7.7.6.K *.,.;.=.=.] #.U.U.U.",
"U.U.@.^ $.$.=.;.;.` q p.r 6.5.7.6.6.6.5.0 a.0 [ =.$.@.@.Q @.U.U.",
"U.] Q ^ ] @.$.$.I u I.I.f.r ,.,.,.,.:.w B.I.L.0 ' @.@.^ ^ T ~ U.",
"~ Y Q ^ ^ ] @.J  .I.I.I.I.i.J ;.;.$.7 A.I.I.I.P.0 E ^ ^ Q T U U.",
"E Y T Q Q ^ Q 6 I.I.I.I.I.I.y.J ] 7 D.I.I.I.I.I.J.5 Q T Y U U W ",
"R U U Y Y Q Q G u I.I.I.I.I.I.o.6 G.I.I.I.I.I.P.q H T U U U B U.",
"P B V U U Y T T D  .I.I.I.I.I.I.I.I.I.I.I.I.P.q H U U V V B v U.",
"L v B B V V U U U 8 o.I.I.I.I.I.I.I.I.I.I.L.0 n U V B B B v h U.",
"D j v v B B B V U V 8 ..I.I.P.I.I.I.I.I.L.e n B B B B m j g d U.",
"S f g j j j j v B B B S u.P.P.P.P.P.P.K.y c B v M g g g g f p U.",
"8 : a f f g f j j j j t Z.K.K.K.K.L.L.L.i F h j j f f f f f , U.",
"8 X . . o @ & : a a ) N.K.K.K.K.K.H.H.K.H.X.2 : * # @ O X X $ U.",
"8 O o X . . .     i N.H.H.H.H.H.H.H.H.H.H.F.y.4 . . o o O O % U.",
"8 % @ @ O O o o | Z.F.F.F.F.F.Z.y.Z.F.F.F.F.S.p.7 o O @ # # - U.",
"3 * * # # @ @ ..N.S.F.S.S.D.Z...+ y.A.F.S.S.S.F.s.w # & * * 1 U.",
"3 ; ; * * * = i.Z.S.Z.S.S.Z.u.% $ $ p.Z.S.S.S.S.m.O.; ; ; , , U.",
"U.2 s s , , , > d.Z.Z.Z.Z.f.- * * * 1 g.Z.S.S.g.+., s s d d 2 U.",
"U.U.1 h d d d s l f.Z.Z.n.k : , , , , x M.g.N.{ d d h h g 3 U.U.",
"U.U.U.2 j j g h f h b.V.b d d h d h d f F C._ g j j j j 1 U.U.U.",
"U.U.U.U.2 M m M m m j m j j m g j j j m j m j m M M M 1 U.U.U.U.",
"U.U.U.U.U.k N M M M M M M m m m M M M M N M B N N M < U.U.U.U.U.",
"U.U.U.U.U.U.k C C C C C C C C C N C C N C C N Z N < U.U.U.U.U.U.",
"U.U.U.U.U.U.U.l A A A A Z Z Z Z Z Z A A A A A Z = U.U.U.U.U.U.U.",
"U.U.U.U.U.U.U.U.c / / / / / / / / / / / / / A = U.U.U.U.U.U.U.U.",
"U.U.U.U.U.U.U.U.$ l B B B B B B B B B B B B % U.U.U.U.U.U.U.U.U.",
"U.U.U.U.U.U.U.U.U.U.U.U.U.U.U.U.U.U.U.U.U.U.U.U.U.U.U.U.U.U.U.U."
};
