/* XPM */
static const char *three_dots_16_xpm[] = {
/* columns rows colors chars-per-pixel */
"16 16 19 1 ",
"  c None",
". c #4043DB",
"X c #4144DC",
"o c #4352DB",
"O c #4353DB",
"+ c #466CDA",
"@ c #466CDB",
"# c #4879DB",
"$ c #487ADB",
"% c #4B88DB",
"& c #4EA1DB",
"* c #4FAFDB",
"= c #4FB0DA",
"- c #50BBDB",
"; c #51BDDC",
": c #53D6DB",
"> c #54D6DB",
", c #56E3DB",
"< c #56E4DC",
/* pixels */
"                ",
"                ",
"       <>       ",
"      ,  ;      ",
"      :  =      ",
"       -*       ",
"       *&       ",
"      *  %      ",
"      &  $      ",
"       %$       ",
"       $@       ",
"      $  o      ",
"      @  X      ",
"       o.       ",
"                ",
"                "
};
