/* XPM */
static const char *time_serie2_16_xpm[] = {
/* columns rows colors chars-per-pixel */
"16 16 2 1 ",
"  c None",
". c black",
/* pixels */
"                ",
"      ....      ",
"      ....      ",
"      .  .      ",
"      .  .      ",
"      .  . .... ",
"      .  . .. . ",
"      .  . .. . ",
" .... .  . .. . ",
" . .. .  . .. . ",
" . .. .  . .. . ",
" . .. .  . .. . ",
" . .. .  . .. . ",
" .... .... .... ",
" ...  ....  ... ",
"                "
};
